<?xml version="1.0" standalone="no"?>
<!DOCTYPE svg PUBLIC "-//W3C//DTD SVG 20010904//EN"
 "http://www.w3.org/TR/2001/REC-SVG-20010904/DTD/svg10.dtd">
<svg version="1.0" xmlns="http://www.w3.org/2000/svg"
 width="526.000000pt" height="526.000000pt" viewBox="0 0 526.000000 526.000000"
 preserveAspectRatio="xMidYMid meet">
<metadata>
Created by potrace 1.14, written by Peter Selinger 2001-2017
</metadata>
<g transform="translate(0.000000,526.000000) scale(0.100000,-0.100000)"
fill="#000000" stroke="none">
<path d="M3524 4974 c-163 -43 -284 -190 -287 -351 -1 -76 8 -122 35 -180 27
-59 120 -154 173 -177 22 -10 50 -23 63 -29 34 -16 180 -12 231 7 l43 16 85
-83 c262 -255 440 -576 512 -923 25 -125 32 -190 35 -334 5 -249 -31 -451
-126 -700 -53 -140 -183 -357 -286 -479 -46 -54 -154 -164 -208 -212 -88 -78
-279 -203 -379 -248 -27 -12 -61 -29 -75 -36 -34 -18 -257 -92 -295 -99 -16
-2 -55 -10 -85 -16 -102 -21 -155 -25 -330 -25 -190 0 -236 4 -379 35 -429 91
-815 348 -1076 713 -157 219 -248 438 -310 747 -17 83 -24 338 -12 470 15 181
83 420 169 595 56 115 53 110 133 229 75 111 96 137 217 260 l98 100 49 -16
c32 -10 80 -15 133 -14 70 2 93 7 149 34 82 39 141 99 182 182 29 59 32 73 32
160 0 87 -3 101 -32 160 -61 125 -173 204 -304 216 -230 22 -419 -149 -419
-379 0 -58 -1 -60 -48 -100 -202 -177 -374 -403 -500 -657 -90 -180 -139 -321
-181 -520 -18 -86 -23 -122 -36 -245 -5 -49 -6 -316 0 -366 8 -80 17 -165 20
-179 2 -8 11 -51 20 -95 121 -587 512 -1116 1048 -1419 132 -74 328 -158 437
-186 19 -5 60 -16 90 -24 146 -42 319 -61 540 -60 414 1 784 111 1140 337 75
48 62 39 169 123 82 65 85 66 130 59 25 -3 60 -8 76 -10 17 -2 64 -9 105 -14
41 -6 100 -13 130 -16 30 -4 66 -8 80 -10 31 -5 166 -22 239 -30 30 -4 61 -8
70 -10 9 -1 43 -6 76 -10 32 -4 66 -8 75 -10 47 -8 150 -16 150 -11 0 4 -4 14
-9 24 -5 9 -21 46 -36 82 -15 36 -33 79 -40 95 -7 17 -48 111 -90 210 -42 99
-85 198 -95 220 -10 22 -30 69 -44 105 -15 36 -31 74 -36 85 -5 11 -27 61 -49
111 l-40 92 29 93 c16 52 32 105 34 119 2 14 11 57 19 95 14 64 19 100 33 220
5 54 6 341 0 385 -3 19 -7 62 -11 94 -19 188 -102 458 -200 656 -131 265 -278
459 -511 670 -49 45 -49 45 -50 110 -3 244 -237 425 -470 364z"/>
<path d="M389 4248 c-21 -7 -41 -37 -97 -151 -91 -186 -95 -193 -141 -333
-100 -300 -136 -523 -136 -839 0 -209 12 -355 40 -490 8 -38 16 -82 19 -96 5
-33 41 -161 71 -254 41 -129 130 -328 205 -460 13 -22 28 -49 34 -60 106 -193
366 -496 571 -664 270 -222 633 -420 900 -491 17 -4 74 -20 128 -34 369 -98
798 -107 1192 -25 425 90 818 284 1159 574 67 56 118 107 113 111 -3 3 -78 15
-187 31 -19 2 -64 10 -99 17 l-63 13 -42 -31 c-358 -272 -720 -416 -1191 -475
-150 -19 -475 -7 -642 23 -531 96 -1024 380 -1366 786 -40 47 -76 90 -82 96
-5 6 -16 20 -22 30 -7 11 -31 45 -53 77 -103 149 -206 352 -270 532 -17 50
-33 97 -35 105 -2 8 -13 49 -24 90 -11 41 -23 88 -25 104 -3 16 -10 52 -15 80
-24 119 -34 249 -34 406 1 302 48 551 158 845 31 82 120 268 147 307 17 25 18
29 3 65 -38 91 -134 140 -216 111z"/>
<path d="M4786 4252 c-38 -5 -94 -43 -115 -79 -23 -36 -34 -80 -22 -87 12 -8
71 -123 119 -233 176 -400 235 -842 172 -1285 -15 -106 -57 -284 -81 -348 -10
-25 0 -52 66 -195 40 -86 65 -145 65 -152 0 -5 6 -17 13 -27 12 -17 18 -9 51
75 135 336 191 621 191 979 0 195 -11 353 -30 450 -3 14 -7 36 -10 50 -17 89
-29 143 -47 205 -29 104 -70 229 -77 240 -4 6 -13 28 -20 50 -24 75 -163 344
-179 349 -29 9 -66 12 -96 8z"/>
<path d="M2374 3671 c-2 -2 -4 -121 -4 -263 l0 -258 -264 0 -263 0 0 -257 c0
-142 4 -260 8 -263 4 -3 122 -5 263 -4 l256 0 0 -262 0 -262 260 0 260 0 0
262 0 262 253 -1 c138 0 257 1 263 3 8 2 12 79 12 263 l0 259 -264 0 -264 0 0
263 0 262 -256 0 c-141 0 -258 -2 -260 -4z"/>
</g>
</svg>
