<?xml version="1.0" encoding="UTF-8" standalone="no"?><!DOCTYPE svg PUBLIC "-//W3C//DTD SVG 1.1//EN" "http://www.w3.org/Graphics/SVG/1.1/DTD/svg11.dtd"><svg width="100%" height="100%" viewBox="0 0 267 267" version="1.1" xmlns="http://www.w3.org/2000/svg" xmlns:xlink="http://www.w3.org/1999/xlink" xml:space="preserve" xmlns:serif="http://www.serif.com/" style="fill-rule:evenodd;clip-rule:evenodd;stroke-linejoin:round;stroke-miterlimit:2;"><g><g id="Icon-Calendar"><path id="Fill-133" d="M206.667,225l-146.667,0c-10,0 -18.333,-8.333 -18.333,-18.333l-0,-134.584c-0,-10 6.666,-18.333 15.416,-18.333l9.167,0l0,12.083l-9.167,0c-1.25,0 -2.916,2.5 -2.916,6.25l-0,134.584c-0,3.333 2.916,6.25 6.25,6.25l146.666,-0c3.334,-0 6.25,-2.917 6.25,-6.25l0,-134.584c0,-3.75 -2.083,-6.25 -2.916,-6.25l-9.167,0l0,-12.083l9.167,0c8.333,0 15.416,8.333 15.416,18.333l0,134.584c-0.833,10 -9.166,18.333 -19.166,18.333" style="fill:#2e3192;fill-rule:nonzero;"/><path id="Fill-134" d="M84.583,78.333c-3.333,0 -6.25,-2.916 -6.25,-6.25l0,-24.583c0,-3.333 2.917,-6.25 6.25,-6.25c3.334,0 6.25,2.917 6.25,6.25l0,24.583c-0.416,3.334 -2.916,6.25 -6.25,6.25" style="fill:#2e3192;fill-rule:nonzero;"/><path id="Fill-135" d="M182.083,78.333c-3.333,0 -6.25,-2.916 -6.25,-6.25l0,-24.583c0,-3.333 2.917,-6.25 6.25,-6.25c3.334,0 6.25,2.917 6.25,6.25l0,24.583c0,3.334 -2.916,6.25 -6.25,6.25" style="fill:#2e3192;fill-rule:nonzero;"/><path id="Fill-136" d="M102.917,53.75l60.833,-0l0,12.5l-60.833,-0l-0,-12.5Z" style="fill:#2e3192;fill-rule:nonzero;"/><path id="Fill-137" d="M53.75,90.417l159.167,-0l-0,12.5l-159.167,-0l0,-12.5Z" style="fill:#2e3192;fill-rule:nonzero;"/><path id="Fill-138" d="M188.333,115l12.084,0l-0,12.083l-12.084,0l0,-12.083Z" style="fill:#2e3192;fill-rule:nonzero;"/><path id="Fill-139" d="M163.75,115l12.5,0l0,12.083l-12.5,0l0,-12.083Z" style="fill:#2e3192;fill-rule:nonzero;"/><path id="Fill-140" d="M139.583,115l12.084,0l-0,12.083l-12.084,0l0,-12.083Z" style="fill:#2e3192;fill-rule:nonzero;"/><path id="Fill-141" d="M115,115l12.083,0l0,12.083l-12.083,0l0,-12.083Z" style="fill:#2e3192;fill-rule:nonzero;"/><path id="Fill-142" d="M90.417,115l12.5,0l-0,12.083l-12.5,0l-0,-12.083Z" style="fill:#2e3192;fill-rule:nonzero;"/><path id="Fill-143" d="M188.333,139.583l12.084,0l-0,12.084l-12.084,-0l0,-12.084Z" style="fill:#2e3192;fill-rule:nonzero;"/><path id="Fill-144" d="M163.75,139.583l12.5,0l0,12.084l-12.5,-0l0,-12.084Z" style="fill:#2e3192;fill-rule:nonzero;"/><path id="Fill-145" d="M139.583,139.583l12.084,0l-0,12.084l-12.084,-0l0,-12.084Z" style="fill:#2e3192;fill-rule:nonzero;"/><path id="Fill-146" d="M115,139.583l12.083,0l0,12.084l-12.083,-0l0,-12.084Z" style="fill:#2e3192;fill-rule:nonzero;"/><path id="Fill-147" d="M90.417,139.583l12.5,0l-0,12.084l-12.5,-0l-0,-12.084Z" style="fill:#2e3192;fill-rule:nonzero;"/><path id="Fill-148" d="M66.25,139.583l12.083,0l0,12.084l-12.083,-0l0,-12.084Z" style="fill:#2e3192;fill-rule:nonzero;"/><path id="Fill-149" d="M188.333,163.75l12.084,0l-0,12.5l-12.084,0l0,-12.5Z" style="fill:#2e3192;fill-rule:nonzero;"/><path id="Fill-150" d="M163.75,163.75l12.5,0l0,12.5l-12.5,0l0,-12.5Z" style="fill:#2e3192;fill-rule:nonzero;"/><path id="Fill-151" d="M139.583,163.75l12.084,0l-0,12.5l-12.084,0l0,-12.5Z" style="fill:#2e3192;fill-rule:nonzero;"/><path id="Fill-152" d="M115,163.75l12.083,0l0,12.5l-12.083,0l0,-12.5Z" style="fill:#2e3192;fill-rule:nonzero;"/><path id="Fill-153" d="M90.417,163.75l12.5,0l-0,12.5l-12.5,0l-0,-12.5Z" style="fill:#2e3192;fill-rule:nonzero;"/><path id="Fill-154" d="M66.25,163.75l12.083,0l0,12.5l-12.083,0l0,-12.5Z" style="fill:#2e3192;fill-rule:nonzero;"/><path id="Fill-155" d="M163.75,188.333l12.5,0l0,12.084l-12.5,-0l0,-12.084Z" style="fill:#2e3192;fill-rule:nonzero;"/><path id="Fill-156" d="M139.583,188.333l12.084,0l-0,12.084l-12.084,-0l0,-12.084Z" style="fill:#2e3192;fill-rule:nonzero;"/><path id="Fill-157" d="M115,188.333l12.083,0l0,12.084l-12.083,-0l0,-12.084Z" style="fill:#2e3192;fill-rule:nonzero;"/><path id="Fill-158" d="M90.417,188.333l12.5,0l-0,12.084l-12.5,-0l-0,-12.084Z" style="fill:#2e3192;fill-rule:nonzero;"/><path id="Fill-159" d="M66.25,188.333l12.083,0l0,12.084l-12.083,-0l0,-12.084Z" style="fill:#2e3192;fill-rule:nonzero;"/></g></g></svg>