<?xml version="1.0" encoding="UTF-8" standalone="no"?><!DOCTYPE svg PUBLIC "-//W3C//DTD SVG 1.1//EN" "http://www.w3.org/Graphics/SVG/1.1/DTD/svg11.dtd"><svg width="100%" height="100%" viewBox="0 0 267 267" version="1.1" xmlns="http://www.w3.org/2000/svg" xmlns:xlink="http://www.w3.org/1999/xlink" xml:space="preserve" xmlns:serif="http://www.serif.com/" style="fill-rule:evenodd;clip-rule:evenodd;stroke-linejoin:round;stroke-miterlimit:2;"><g><g id="Icon-Clock"><path id="Fill-131" d="M132.917,228.75c-52.5,0 -95.417,-42.917 -95.417,-95.417c0,-52.5 42.917,-95.416 95.417,-95.416c52.5,-0 95.416,42.916 95.416,95.416c0.417,52.5 -42.5,95.417 -95.416,95.417Zm-0,-180.833c-47.084,-0 -85,38.333 -85,85c-0,46.666 38.333,85 85,85c46.666,-0 85,-38.334 85,-85c-0,-46.667 -37.917,-85 -85,-85Z" style="fill:#fff;fill-rule:nonzero;"/><path id="Fill-132" d="M162.917,182.083l-35.417,-35.416l0,-64.584l11.25,0l0,60l32.083,32.084l-7.916,7.916" style="fill:#fff;fill-rule:nonzero;"/></g></g></svg>