<?xml version="1.0" encoding="UTF-8" standalone="no"?><!DOCTYPE svg PUBLIC "-//W3C//DTD SVG 1.1//EN" "http://www.w3.org/Graphics/SVG/1.1/DTD/svg11.dtd"><svg width="100%" height="100%" viewBox="0 0 267 267" version="1.1" xmlns="http://www.w3.org/2000/svg" xmlns:xlink="http://www.w3.org/1999/xlink" xml:space="preserve" xmlns:serif="http://www.serif.com/" style="fill-rule:evenodd;clip-rule:evenodd;stroke-linejoin:round;stroke-miterlimit:2;"><g><g id="Icon-Envelope"><path id="Fill-3" d="M231.25,78.333l-7.917,-7.916l-73.333,73.333c-9.167,9.167 -24.583,9.167 -33.75,0l-73.333,-72.917l-7.917,7.917l54.583,54.583l-54.583,54.584l7.917,7.916l54.583,-54.583l10.833,10.833c6.667,6.667 15.417,10.417 24.584,10.417c9.166,0 17.916,-3.75 24.583,-10.417l10.833,-10.833l54.584,54.583l7.916,-7.916l-54.583,-54.584l55,-55" style="fill:#fff;fill-rule:nonzero;"/><path id="Fill-4" d="M215.833,210l-164.583,0c-9.583,0 -17.5,-7.917 -17.5,-17.5l-0,-117.5c-0,-9.583 7.917,-17.5 17.5,-17.5l164.583,0c9.584,0 17.5,7.917 17.5,17.5l0,117.5c0,9.583 -7.916,17.5 -17.5,17.5Zm-165,-141.25c-3.333,0 -5.833,2.5 -5.833,5.833l-0,117.5c-0,3.334 2.5,5.834 5.833,5.834l164.584,-0c3.333,-0 5.833,-2.5 5.833,-5.834l0,-117.5c0,-3.333 -2.5,-5.833 -5.833,-5.833l-164.584,0Z" style="fill:#fff;fill-rule:nonzero;"/></g></g></svg>