<?xml version="1.0" encoding="UTF-8" standalone="no"?><!DOCTYPE svg PUBLIC "-//W3C//DTD SVG 1.1//EN" "http://www.w3.org/Graphics/SVG/1.1/DTD/svg11.dtd"><svg width="100%" height="100%" viewBox="0 0 1113 1113" version="1.1" xmlns="http://www.w3.org/2000/svg" xmlns:xlink="http://www.w3.org/1999/xlink" xml:space="preserve" xmlns:serif="http://www.serif.com/" style="fill-rule:evenodd;clip-rule:evenodd;stroke-linejoin:round;stroke-miterlimit:2;"><g><g id="Icon-Envelope"><path id="Fill-3" d="M963.542,326.388l-32.988,-32.984l-305.554,305.554c-38.196,38.196 -102.429,38.196 -140.625,0l-305.554,-303.821l-32.988,32.988l227.43,227.429l-227.43,227.433l32.988,32.984l227.429,-227.429l45.138,45.137c27.779,27.779 64.237,43.404 102.433,43.404c38.192,0 74.65,-15.625 102.429,-43.404l45.138,-45.137l227.433,227.429l32.983,-32.984l-227.429,-227.433l229.167,-229.167" style="fill-rule:nonzero;"/><path id="Fill-4" d="M899.304,875l-685.762,0c-39.929,0 -72.917,-32.987 -72.917,-72.917l0,-489.583c0,-39.929 32.988,-72.917 72.917,-72.917l685.762,0c39.934,0 72.917,32.988 72.917,72.917l-0,489.583c-0,39.93 -32.983,72.917 -72.917,72.917Zm-687.5,-588.542c-13.887,0 -24.304,10.417 -24.304,24.305l0,489.583c0,13.892 10.417,24.308 24.304,24.308l685.767,0c13.887,0 24.304,-10.416 24.304,-24.308l0,-489.584c0,-13.887 -10.417,-24.304 -24.304,-24.304l-685.767,0Z" style="fill-rule:nonzero;"/></g></g></svg>