<?xml version="1.0" encoding="UTF-8" standalone="no"?><!DOCTYPE svg PUBLIC "-//W3C//DTD SVG 1.1//EN" "http://www.w3.org/Graphics/SVG/1.1/DTD/svg11.dtd"><svg width="100%" height="100%" viewBox="0 0 267 267" version="1.1" xmlns="http://www.w3.org/2000/svg" xmlns:xlink="http://www.w3.org/1999/xlink" xml:space="preserve" xmlns:serif="http://www.serif.com/" style="fill-rule:evenodd;clip-rule:evenodd;stroke-linejoin:round;stroke-miterlimit:2;"><g><g id="Icon-Location"><path id="Fill-55" d="M133.333,232.083l-3.75,-4.583c-2.5,-3.333 -66.25,-77.917 -66.25,-122.5c0,-38.75 31.667,-70 70,-70c38.334,-0 70,31.667 70,70c0,44.583 -63.75,119.583 -66.25,122.5l-3.75,4.583Zm0,-187.5c-33.333,0 -60,27.084 -60,60c0,35 46.25,94.584 60,111.667c13.75,-17.083 60,-76.25 60,-111.667c0,-32.916 -26.666,-60 -60,-60Z" style="fill-rule:nonzero;"/><path id="Fill-56" d="M133.333,131.667c-14.583,-0 -26.666,-12.084 -26.666,-26.667c-0,-14.583 12.083,-26.667 26.666,-26.667c14.584,0 26.667,12.084 26.667,26.667c0,14.583 -12.083,26.667 -26.667,26.667Zm0,-43.334c-9.166,0 -16.666,7.5 -16.666,16.667c-0,9.167 7.5,16.667 16.666,16.667c9.167,-0 16.667,-7.5 16.667,-16.667c0,-9.167 -7.5,-16.667 -16.667,-16.667Z" style="fill-rule:nonzero;"/></g></g></svg>