<?xml version="1.0" encoding="UTF-8" standalone="no"?><!DOCTYPE svg PUBLIC "-//W3C//DTD SVG 1.1//EN" "http://www.w3.org/Graphics/SVG/1.1/DTD/svg11.dtd"><svg width="100%" height="100%" viewBox="0 0 417 417" version="1.1" xmlns="http://www.w3.org/2000/svg" xmlns:xlink="http://www.w3.org/1999/xlink" xml:space="preserve" xmlns:serif="http://www.serif.com/" style="fill-rule:evenodd;clip-rule:evenodd;stroke-linejoin:round;stroke-miterlimit:2;"><g><rect x="0" y="0" width="416.667" height="416.667" style="fill:none;fill-rule:nonzero;"/><path d="M364.583,285.069l0,61.389c0.004,9.07 -7.099,16.692 -16.145,17.327c-7.587,0.521 -13.785,0.798 -18.577,0.798c-153.42,0 -277.778,-124.357 -277.778,-277.777c0,-4.792 0.261,-10.99 0.799,-18.577c0.635,-9.047 8.257,-16.15 17.326,-16.146l61.389,0c4.439,-0.004 8.202,3.396 8.646,7.813c0.399,3.993 0.764,7.17 1.111,9.583c3.45,24.078 10.521,47.497 20.972,69.462c1.65,3.472 0.573,7.621 -2.552,9.844l-37.465,26.771c22.9,53.358 65.461,95.92 118.819,118.819l26.737,-37.396c2.246,-3.14 6.456,-4.235 9.947,-2.587c21.963,10.432 45.375,17.485 69.445,20.921c2.413,0.347 5.59,0.729 9.549,1.111c4.409,0.452 7.8,4.213 7.795,8.645l-0.018,0Z" style="fill:#1cba9f;fill-rule:nonzero;"/></g></svg>