<?xml version="1.0" encoding="UTF-8" standalone="no"?><!DOCTYPE svg PUBLIC "-//W3C//DTD SVG 1.1//EN" "http://www.w3.org/Graphics/SVG/1.1/DTD/svg11.dtd"><svg width="100%" height="100%" viewBox="0 0 417 417" version="1.1" xmlns="http://www.w3.org/2000/svg" xmlns:xlink="http://www.w3.org/1999/xlink" xml:space="preserve" xmlns:serif="http://www.serif.com/" style="fill-rule:evenodd;clip-rule:evenodd;stroke-linejoin:round;stroke-miterlimit:2;"><path d="M329.861,190.972l-104.167,0l0,-104.166c0,-9.524 -7.837,-17.362 -17.361,-17.362c-9.524,0 -17.361,7.838 -17.361,17.362l0,104.166l-104.166,0c-9.524,0 -17.362,7.837 -17.362,17.361c0,9.524 7.838,17.361 17.362,17.361l104.166,0l0,104.167c0,9.524 7.837,17.361 17.361,17.361c9.524,0 17.361,-7.837 17.361,-17.361l0,-104.167l104.167,0c9.524,0 17.361,-7.837 17.361,-17.361c0,-9.524 -7.837,-17.361 -17.361,-17.361Z" style="fill:#1cbab8;fill-rule:nonzero;"/></svg>